<?xml version="1.0" encoding="UTF-8"?>
<svg width="605px" height="176px" viewBox="0 0 605 176" version="1.1" xmlns="http://www.w3.org/2000/svg" xmlns:xlink="http://www.w3.org/1999/xlink">
    <title>Combined Shape</title>
    <g id="Page-1" stroke="none" stroke-width="1" fill="none" fill-rule="evenodd">
        <g id="Prohire-Software" transform="translate(-229.000000, -301.000000)" fill="#EA5429" fill-rule="nonzero">
            <g id="Group" transform="translate(229.000000, 301.917000)">
                <g transform="translate(0.000000, -0.000000)" id="Combined-Shape">
                    <path d="M151.706,134.531268 C153.673,132.059268 157.271,131.655268 159.74,133.622268 C162.209,135.589268 162.617,139.187268 160.649,141.656268 C146.374,159.565268 126.102,171.284268 103.566,174.656268 C103.281,174.698268 102.997,174.717268 102.715,174.717268 C99.93,174.717268 97.49,172.682268 97.066,169.844268 C96.6,166.722268 98.751,163.810268 101.877,163.344268 C121.543,160.403268 139.239,150.169268 151.706,134.531268 Z M90.129,13.596268 C95.439,13.596268 100.739,14.178268 105.877,15.327268 C108.958,16.016268 110.899,19.070268 110.21,22.154268 C109.521,25.238268 106.467,27.176268 103.383,26.487268 C99.06,25.523268 94.605,25.034268 90.13,25.034268 C56.777,25.034268 29.643,52.168268 29.643,85.521268 C29.643,118.874268 56.777,146.008268 90.13,146.008268 C116.171,146.008268 139.225,129.432268 147.495,104.763268 C149.569,98.580268 150.617,92.106268 150.617,85.521268 C150.617,82.641268 150.416,79.752268 150.012,76.927268 C149.569,73.798268 151.743,70.902268 154.869,70.459268 C157.995,70.016268 160.891,72.187268 161.336,75.316268 C161.811,78.671268 162.054,82.104268 162.054,85.521268 C162.054,93.345268 160.805,101.042268 158.336,108.397268 C148.503,137.735268 121.091,157.443268 90.129,157.443268 C50.473,157.443268 18.207,125.180268 18.207,85.521268 C18.207,45.862268 50.473,13.596268 90.129,13.596268 Z M246.697,135.499268 C253.1,135.499268 258.059,140.182268 258.059,146.310268 C258.059,152.434268 253.1,157.184268 246.697,157.184268 C240.298,157.184268 235.335,152.434268 235.335,146.310268 C235.335,140.153268 240.297,135.499268 246.697,135.499268 Z M220.208,135.437268 C222.993,135.439268 225.718,136.325268 227.709,137.642268 L226.209,140.828268 C223.882,139.417268 221.552,138.836268 219.929,138.836268 C217.818,138.836268 216.441,139.633268 216.441,141.070268 C216.441,143.23888 218.918749,143.866124 221.578438,144.678863 L222.094872,144.838947 C225.027219,145.764472 228.000253,147.047149 227.985058,150.965268 C227.985058,154.792268 224.616,157.152268 219.899,157.152268 C216.53,157.152268 213.347,155.775268 211.14,153.753268 L212.703,150.626268 C214.907,152.647268 217.662,153.753268 219.962,153.753268 C222.471,153.753268 223.972,152.800268 223.972,151.147268 C223.972,146.371268 212.398,149.033268 212.398,141.408268 C212.398,137.730268 215.551,135.437268 220.208,135.437268 Z M313.123,135.590268 L318.331,153.016268 L323.509,135.620268 L327.061,135.590268 L332.268,153.016268 L337.443,135.590268 L341.18,135.590268 L334.011,157.029268 L330.307,157.029268 L325.222,140.307268 L320.077,157.029268 L316.34,157.029268 L309.233,135.590268 L313.123,135.590268 Z M303.967,135.590268 L303.967,138.836268 L297.169,138.836268 L297.169,157.029268 L293.554,157.029268 L293.554,138.836268 L286.786,138.836268 L286.786,135.590268 L303.967,135.590268 Z M281.213,135.590268 L281.183,138.836268 L270.432,138.836268 L270.432,145.023268 L280.171,145.023268 L280.171,148.240268 L270.432,148.240268 L270.432,157.029268 L266.818,157.029268 L266.818,135.590268 L281.213,135.590268 Z M357.471,135.590268 L366.844,157.029268 L362.984,157.029268 L360.933,152.190268 L350.122,152.190268 L348.071,157.029268 L344.304,157.029268 L353.767,135.590268 L357.471,135.590268 Z M416.948,135.590268 L416.948,138.836268 L405.248,138.836268 L405.248,144.625268 L415.723,144.625268 L415.723,147.871268 L405.248,147.871268 L405.248,153.783268 L417.313,153.783268 L417.313,157.029268 L401.633,157.029268 L401.633,135.590268 L416.948,135.590268 Z M383.29,135.589268 C388.77,135.589268 391.927,138.254268 391.927,142.911268 C391.927,146.340268 390.334,148.759268 387.486,149.861268 L392.296,157.027268 L388.19,157.027268 L384.269,150.536268 C383.964,150.566268 383.625,150.566268 383.29,150.566268 L378.205,150.566268 L378.205,157.028268 L374.59,157.028268 L374.59,135.589268 L383.29,135.589268 Z M246.727,138.746268 C242.502,138.745268 239.01,142.051268 239.01,146.310268 C239.01,150.569268 242.532,153.934268 246.727,153.934268 C250.922,153.934268 254.355,150.568268 254.355,146.310268 C254.355,142.051268 250.923,138.746268 246.727,138.746268 Z M39.734,10.786268 C42.351,9.01926803 45.907,9.70526803 47.674,12.323268 C49.444,14.940268 48.755,18.493268 46.137,20.263268 C24.41,34.940268 11.438,59.337268 11.438,85.520268 C11.438,106.766268 19.773,126.678268 34.913,141.588268 C37.161,143.805268 37.19,147.425268 34.974,149.674268 C33.854,150.810268 32.375,151.379268 30.9,151.379268 C29.451,151.379268 28.001,150.832268 26.888,149.735268 C9.552,132.657268 0,109.852268 0,85.520268 C0,55.532268 14.855,27.596268 39.734,10.786268 Z M355.512,139.448268 L351.469,148.974268 L359.555,148.974268 L355.512,139.448268 Z M383.29,138.836268 L378.205,138.836268 L378.205,147.320268 L383.29,147.320268 C386.596,147.320268 388.498,145.913268 388.498,143.002268 C388.498,140.184268 386.596,138.836268 383.29,138.836268 Z M43.42,61.285268 C44.876,58.483268 48.329,57.393268 51.131,58.849268 C53.933,60.305268 55.024,63.758268 53.567,66.560268 C50.506,72.452268 48.953,78.830268 48.953,85.521268 C48.953,102.747268 59.818,118.291268 75.987,124.206268 C78.954,125.290268 80.478,128.574268 79.394,131.541268 C78.546,133.858268 76.356,135.298268 74.023,135.298268 C73.369,135.298268 72.706,135.184268 72.059,134.945268 C51.399,127.389268 37.518,107.526268 37.518,85.520268 C37.518,77.094268 39.557,68.714268 43.42,61.285268 Z M90.131,32.905268 C119.142,32.905268 142.746,56.509268 142.746,85.520268 C142.746,104.048268 133.285,120.860268 117.44,130.499268 C116.511,131.065268 115.486,131.334268 114.473,131.334268 C112.542,131.334268 110.659,130.357268 109.581,128.586268 C107.94,125.888268 108.797,122.370268 111.496,120.730268 C123.902,113.182268 131.308,100.019268 131.308,85.520268 C131.308,62.815268 112.836,44.343268 90.131,44.343268 C86.646,44.343268 83.184,44.776268 79.845,45.637268 C74.008,47.136268 68.462,49.980268 63.806,53.856268 C61.379,55.875268 57.771,55.545268 55.752,53.118268 C53.733,50.691268 54.06,47.086268 56.49,45.064268 C62.441,40.110268 69.53,36.480268 76.998,34.558268 C81.269,33.462268 85.685,32.905268 90.131,32.905268 Z M90.13,52.215268 C108.496,52.215268 123.435,67.154268 123.435,85.520268 C123.435,103.883268 108.496,118.825268 90.13,118.825268 C71.767,118.825268 56.825,103.882268 56.825,85.520268 C56.825,67.154268 71.768,52.215268 90.13,52.215268 Z M574.234,51.105268 C595.66,51.104268 605.634,65.276268 604.161,87.495268 L560.401,87.495268 C562.442,95.204268 568.338,99.739268 576.159,99.739268 C581.942,99.739268 587.382,97.473268 591.577,93.279268 L600.759,102.573268 C594.639,109.377268 585.681,113.344268 574.686,113.344268 C555.186,113.344268 542.83,100.872268 542.83,82.393268 C542.83,63.577268 555.638,51.105268 574.234,51.105268 Z M359.517,51.104268 C379.014,51.103268 392.166,63.459268 392.166,82.167268 C392.166,100.759268 379.014,113.343268 359.517,113.343268 C339.905,113.343268 326.753,100.759268 326.753,82.167268 C326.753,63.460268 339.905,51.104268 359.517,51.104268 Z M112.314,3.85226803 C113.343,0.868268027 116.602,-0.716731973 119.585,0.315268027 C155.88,12.859268 180.263,47.099268 180.263,85.519268 C180.263,93.456268 179.227,101.332268 177.192,108.926268 C176.506,111.479268 174.196,113.165268 171.672,113.165268 C171.18,113.165268 170.682,113.101268 170.187,112.968268 C167.136,112.150268 165.327,109.014268 166.146,105.963268 C167.922,99.333268 168.825,92.457268 168.825,85.520268 C168.825,51.973268 147.534,22.075268 115.851,11.126268 C112.864,10.094268 111.282,6.83526803 112.314,3.85226803 Z M488.642,51.672268 L488.642,112.666268 L471.183,112.666268 L471.183,51.672268 L488.642,51.672268 Z M417.221,28.544268 L417.221,62.441268 C421.528,54.844268 428.784,51.102268 438.306,50.990268 C452.023,50.990268 460.753,60.060268 460.753,74.344268 L460.753,112.664268 L443.294,112.664268 L443.294,79.447268 C443.294,71.738268 438.759,66.975268 431.278,66.975268 C422.549,67.087268 417.221,73.663268 417.221,82.621268 L417.221,112.664268 L399.759,112.664268 L399.759,28.544268 L417.221,28.544268 Z M246.487,33.305268 C266.667,33.305268 278.231,43.283268 278.231,60.854268 C278.231,79.333268 266.668,89.989268 246.487,89.989268 L230.729,89.989268 L230.729,112.663268 L212.818,112.663268 L212.818,33.305268 L246.487,33.305268 Z M322.445,50.991268 L322.445,67.429268 C309.973,66.293268 302.265,72.981268 302.265,83.299268 L302.265,112.661268 L284.806,112.661268 L284.806,51.669268 L302.265,51.669268 L302.265,62.667268 C306.46,55.186268 313.376,51.104268 322.445,50.991268 Z M538.523,50.991268 L538.523,67.429268 C526.051,66.293268 518.343,72.981268 518.343,83.299268 L518.343,112.661268 L500.884,112.661268 L500.884,51.669268 L518.343,51.669268 L518.343,62.667268 C522.538,55.186268 529.454,51.104268 538.523,50.991268 Z M90.131,63.653268 C78.074,63.653268 68.264,73.461268 68.264,85.520268 C68.264,97.580268 78.075,107.387268 90.131,107.387268 C102.191,107.387268 111.998,97.580268 111.998,85.520268 C111.998,73.460268 102.19,63.653268 90.131,63.653268 Z M359.517,65.616268 C350.447,65.616268 344.324,72.417268 344.324,82.395268 C344.324,92.370268 350.448,99.174268 359.517,99.174268 C368.471,99.174268 374.707,92.370268 374.707,82.395268 C374.707,72.417268 368.471,65.616268 359.517,65.616268 Z M574.346,63.916268 C566.637,63.916268 561.422,69.131268 560.061,77.180268 L587.835,77.180268 C587.61,69.131268 582.395,63.916268 574.346,63.916268 Z M245.583,48.158268 L230.73,48.158268 L230.73,75.023268 L245.583,75.023268 C255.558,75.023268 261.225,70.488268 261.225,61.422268 C261.225,52.577268 255.557,48.158268 245.583,48.158268 Z M479.912,24.575268 C485.468,24.575268 489.322,28.657268 489.322,34.325268 C489.322,39.993268 485.468,44.075268 479.912,44.075268 C474.357,44.075268 470.502,39.993268 470.502,34.325268 C470.502,28.657268 474.356,24.575268 479.912,24.575268 Z"></path>
                </g>
            </g>
        </g>
    </g>
</svg>